HIERARCHY
ROOT Hips
{
	OFFSET -0.001795 -0.223333 0.028219
	CHANNELS 6 Xposition Yposition Zposition Zrotation Yrotation Xrotation 
	JOINT LeftUpLeg
	{
		OFFSET 0.069520 -0.091406 -0.006815
		CHANNELS 3 Zrotation Yrotation Xrotation
		JOINT LeftLeg
		{
			OFFSET 0.034277 -0.375199 -0.004496
			CHANNELS 3 Zrotation Yrotation Xrotation
			JOINT LeftFoot
			{
				OFFSET -0.013596 -0.397961 -0.043693
				CHANNELS 3 Zrotation Yrotation Xrotation
				JOINT LeftToe
				{
					OFFSET 0.026358 -0.055791 0.119288
					CHANNELS 3 Zrotation Yrotation Xrotation
					End Site
					{
						OFFSET 0.000000 0.000000 0.000000
					}
				}
			}
		}
	}
	JOINT RightUpLeg
	{
		OFFSET -0.067670 -0.090522 -0.004320
		CHANNELS 3 Zrotation Yrotation Xrotation
		JOINT RightLeg
		{
			OFFSET -0.038290 -0.382569 -0.008850
			CHANNELS 3 Zrotation Yrotation Xrotation
			JOINT RightFoot
			{
				OFFSET 0.015774 -0.398415 -0.042312
				CHANNELS 3 Zrotation Yrotation Xrotation
				JOINT RightToe
				{
					OFFSET -0.025372 -0.048144 0.123348
					CHANNELS 3 Zrotation Yrotation Xrotation
					End Site
					{
						OFFSET 0.000000 0.000000 0.000000
					}
				}
			}
		}
	}
	JOINT Spine
	{
		OFFSET -0.002533 0.108963 -0.026696
		CHANNELS 3 Zrotation Yrotation Xrotation
		JOINT Spine1
		{
			OFFSET 0.005487 0.135180 0.001092
			CHANNELS 3 Zrotation Yrotation Xrotation
			JOINT Spine2
			{
				OFFSET 0.001457 0.052922 0.025425
				CHANNELS 3 Zrotation Yrotation Xrotation
				JOINT Neck
				{
					OFFSET -0.002778 0.213870 -0.042857
					CHANNELS 3 Zrotation Yrotation Xrotation
					JOINT Head
					{
						OFFSET 0.005152 0.064970 0.051349
						CHANNELS 3 Zrotation Yrotation Xrotation
						End Site
						{
							OFFSET 0.000000 0.000000 0.000000
						}
					}
				}
				JOINT LeftShoulder
				{
					OFFSET 0.078845 0.121749 -0.034090
					CHANNELS 3 Zrotation Yrotation Xrotation
					JOINT LeftArm
					{
						OFFSET 0.090977 0.030469 -0.008868
						CHANNELS 3 Zrotation Yrotation Xrotation
						JOINT LeftForeArm
						{
							OFFSET 0.259612 -0.012772 -0.027456
							CHANNELS 3 Zrotation Yrotation Xrotation
							JOINT LeftHand
							{
								OFFSET 0.249234 0.008986 -0.001171
								CHANNELS 3 Zrotation Yrotation Xrotation
								End Site
								{
									OFFSET 0.000000 0.000000 0.000000
								}
							}
						}
					}
				}
				JOINT RightShoulder
				{
					OFFSET -0.081759 0.118833 -0.038615
					CHANNELS 3 Zrotation Yrotation Xrotation
					JOINT RightArm
					{
						OFFSET -0.096012 0.032551 -0.009143
						CHANNELS 3 Zrotation Yrotation Xrotation
						JOINT RightForeArm
						{
							OFFSET -0.253742 -0.013329 -0.021401
							CHANNELS 3 Zrotation Yrotation Xrotation
							JOINT RightHand
							{
								OFFSET -0.255298 0.007772 -0.005559
								CHANNELS 3 Zrotation Yrotation Xrotation
								End Site
								{
									OFFSET 0.000000 0.000000 0.000000
								}
							}
						}
					}
				}
			}
		}
	}
}
MOTION
Frames: 12
Frame Time: 0.050000
0.000000 0.938599 0.000000 -0.545472 -4.366253 3.305212 7.141003 -0.085594 -0.654989 -4.124388 0.483551 -2.197005 6.818128 15.079410 10.272113 0.000000 0.000000 0.000000 -6.463180 0.434614 -3.901171 4.222677 -0.390332 1.422492 -5.524479 -14.931297 6.987608 0.000000 0.000000 0.000000 7.549024 -0.249165 1.148050 -6.066063 2.085523 -20.297741 -1.771934 7.847688 27.461854 9.535856 -3.375218 -24.451108 0.000000 0.000000 0.000000 -19.582251 -6.858683 1.354439 -52.677933 -3.216005 -6.946499 4.455405 -24.748513 0.094858 0.000000 0.000000 0.000000 25.216511 -4.355971 -2.612445 59.619097 6.266443 -5.461105 -3.783949 25.043385 0.816967 0.000000 0.000000 0.000000 
0.000173 0.937933 -0.000262 -0.686316 -4.390910 3.514823 7.560714 -0.071890 -0.051145 -4.481684 0.515508 -3.040216 7.089453 15.498934 9.761467 0.000000 0.000000 0.000000 -6.402479 0.456003 -4.318184 4.303654 -0.396728 1.715223 -5.684059 -15.311609 7.356085 0.000000 0.000000 0.000000 7.934749 -0.213720 0.704032 -6.218598 2.130099 -20.141234 -2.513614 8.366367 27.235791 9.655334 -3.189280 -25.407294 0.000000 0.000000 0.000000 -18.834627 -6.622071 1.130760 -53.226441 -3.957839 -6.683344 6.742832 -23.882308 -0.398698 0.000000 0.000000 0.000000 25.427926 -4.677819 -2.676780 60.693451 5.723164 -5.761288 -4.176198 25.973638 0.827389 0.000000 0.000000 0.000000 
0.000355 0.937525 -0.000620 -0.551881 -4.438825 3.391062 7.343188 -0.084581 -0.625183 -4.594905 0.536012 -1.616274 7.565936 16.289648 9.882817 0.000000 0.000000 0.000000 -6.533882 0.474865 -4.754094 4.126041 -0.374086 2.254957 -5.316793 -14.693536 7.920770 0.000000 0.000000 0.000000 8.293426 -0.190525 0.471499 -6.721663 2.277564 -19.990486 -2.644805 7.431158 27.545938 9.459058 -3.374029 -24.630809 0.000000 0.000000 0.000000 -18.679344 -7.046298 1.652567 -53.148040 -4.445559 -6.550694 7.546398 -22.629193 -0.479043 0.000000 0.000000 0.000000 25.173966 -3.972635 -2.519949 60.104116 6.639946 -5.279502 -3.350155 24.067643 0.825827 0.000000 0.000000 0.000000 
0.000413 0.937237 -0.000839 -0.457203 -4.562709 3.393506 7.371925 -0.076898 -0.442690 -4.849989 0.563680 -1.748853 7.581404 16.314243 10.005166 0.000000 0.000000 0.000000 -6.572421 0.496566 -5.202902 4.316215 -0.391665 2.647035 -5.771925 -15.625986 8.172321 0.000000 0.000000 0.000000 8.440161 -0.172390 0.303430 -6.886106 2.321208 -20.046464 -2.790640 7.453211 27.726148 9.564549 -3.516019 -24.248170 0.000000 0.000000 0.000000 -19.042056 -7.300902 1.786501 -53.032533 -4.179162 -6.640568 8.422522 -22.676761 -0.645208 0.000000 0.000000 0.000000 25.827256 -3.977507 -2.568151 59.689548 7.063688 -5.100161 -3.287287 24.691727 0.875268 0.000000 0.000000 0.000000 
0.000437 0.937341 -0.001076 -0.423584 -4.779644 3.135843 7.175130 -0.067625 -0.419516 -4.579007 0.540667 -1.331078 7.500434 16.169042 9.933487 0.000000 0.000000 0.000000 -6.559842 0.494147 -5.163555 3.931931 -0.341728 3.071660 -5.450807 -14.986595 7.980320 0.000000 0.000000 0.000000 8.110301 -0.181782 0.498915 -6.316147 2.171746 -19.590092 -3.087382 7.364653 27.177251 9.723199 -3.716913 -23.718154 0.000000 0.000000 0.000000 -19.377186 -7.173039 1.733291 -52.829619 -4.237624 -6.539630 8.286043 -22.856989 -0.622700 0.000000 0.000000 0.000000 25.964147 -3.375904 -2.279087 59.117386 7.584127 -4.772423 -3.194651 23.939794 0.821563 0.000000 0.000000 0.000000 
0.000381 0.937420 -0.001222 -0.531700 -5.266771 3.067996 7.118826 -0.048183 -0.103431 -4.590523 0.545606 -1.540512 7.619195 16.343392 9.974035 0.000000 0.000000 0.000000 -6.545015 0.508768 -5.350504 4.038264 -0.345795 3.400591 -5.076546 -14.235065 7.701851 0.000000 0.000000 0.000000 8.131005 -0.185410 0.562693 -6.360161 2.172580 -19.661278 -2.976907 7.373896 27.227099 9.485483 -3.627811 -23.649017 0.000000 0.000000 0.000000 -19.405937 -7.174245 1.820454 -52.607061 -4.183722 -6.556209 8.004048 -22.681663 -0.550965 0.000000 0.000000 0.000000 25.897348 -2.898041 -2.074382 58.840815 7.962909 -4.568055 -3.039615 23.638983 0.810744 0.000000 0.000000 0.000000 
0.000187 0.937552 -0.001401 -0.583681 -5.500085 2.873489 7.118268 -0.026791 0.324762 -4.601498 0.547789 -1.790785 7.832214 16.694539 10.301630 0.000000 0.000000 0.000000 -6.437022 0.508996 -5.345388 3.995725 -0.336290 3.597412 -4.872268 -13.843716 7.681205 0.000000 0.000000 0.000000 8.166028 -0.199217 0.734885 -6.243267 2.140996 -19.475543 -3.129205 7.245171 27.019370 9.625072 -3.790650 -23.412582 0.000000 0.000000 0.000000 -19.696576 -7.131360 1.850576 -52.429739 -3.964157 -6.617285 8.222419 -22.897193 -0.588852 0.000000 0.000000 0.000000 25.958047 -2.379004 -1.846576 58.638145 8.306617 -4.364223 -3.086826 23.810753 0.788290 0.000000 0.000000 0.000000 
-0.000098 0.937538 -0.001588 -0.722020 -5.814284 2.863472 7.107591 -0.015244 0.499057 -4.680167 0.559400 -1.835047 7.901287 16.789557 10.060338 0.000000 0.000000 0.000000 -6.275389 0.526955 -5.637151 4.142661 -0.347309 3.903994 -4.782583 -13.606444 7.295457 0.000000 0.000000 0.000000 8.180761 -0.196737 0.726372 -6.159598 2.112596 -19.377386 -3.129634 7.328027 26.814935 9.746463 -3.887759 -23.331346 0.000000 0.000000 0.000000 -19.638237 -7.105110 1.862756 -52.379923 -3.739635 -6.693510 8.220792 -23.261406 -0.596221 0.000000 0.000000 0.000000 25.935293 -2.196111 -1.774407 58.672279 8.718347 -4.134886 -3.226468 23.780681 0.752864 0.000000 0.000000 0.000000 
-0.000491 0.937427 -0.001860 -0.755011 -5.970321 2.882044 7.033628 -0.004853 0.721052 -4.710295 0.562780 -2.043505 8.017757 16.974809 9.872338 0.000000 0.000000 0.000000 -6.247631 0.537009 -5.795467 4.135381 -0.345088 3.828838 -4.642882 -13.375952 7.455548 0.000000 0.000000 0.000000 8.203639 -0.189675 0.664393 -6.092308 2.085542 -19.529375 -3.098718 7.231245 26.924073 9.641258 -3.881815 -23.191371 0.000000 0.000000 0.000000 -19.738353 -6.913412 1.817662 -52.479611 -3.580938 -6.794783 8.379140 -23.566377 -0.620166 0.000000 0.000000 0.000000 25.807611 -1.999948 -1.707336 58.827253 8.855222 -4.069220 -3.468954 24.115917 0.717252 0.000000 0.000000 0.000000 
-0.000916 0.937372 -0.002200 -0.825509 -6.063515 2.861216 7.129020 0.004189 0.942692 -4.756442 0.568369 -2.095294 8.032894 16.995225 9.613115 0.000000 0.000000 0.000000 -6.073253 0.549154 -6.013097 4.172338 -0.348598 3.800312 -4.638992 -13.345055 7.315374 0.000000 0.000000 0.000000 8.271631 -0.182759 0.607010 -6.112988 2.090700 -19.471512 -3.060303 7.272407 26.791319 9.745876 -3.902566 -23.408084 0.000000 0.000000 0.000000 -19.632956 -6.804488 1.758080 -52.703685 -3.357369 -6.900916 8.682233 -24.162726 -0.697194 0.000000 0.000000 0.000000 25.709881 -2.008518 -1.718603 59.001641 9.140541 -3.903998 -3.769905 24.165331 0.663074 0.000000 0.000000 0.000000 
-0.001333 0.937186 -0.002537 -0.860786 -6.195614 2.887209 7.113299 0.010269 1.058875 -4.645293 0.556966 -2.202014 8.004172 16.941261 9.514671 0.000000 0.000000 0.000000 -6.106760 0.549516 -5.979423 4.196774 -0.351972 3.560999 -4.619324 -13.356359 7.508057 0.000000 0.000000 0.000000 8.310742 -0.182794 0.603084 -6.099475 2.080480 -19.595858 -3.015453 7.380854 26.759048 9.682303 -3.827832 -23.570111 0.000000 0.000000 0.000000 -19.520294 -6.689233 1.693302 -52.889140 -3.274864 -6.956926 8.750600 -24.715040 -0.726454 0.000000 0.000000 0.000000 25.707311 -1.834705 -1.600188 59.193054 9.418091 -3.766169 -4.138393 24.311247 0.603952 0.000000 0.000000 0.000000 
-0.001660 0.937130 -0.002820 -0.873335 -6.289239 2.957619 7.175382 0.013382 1.153478 -4.643082 0.556703 -2.329444 8.042935 17.002217 9.409697 0.000000 0.000000 0.000000 -6.188831 0.556137 -6.074418 4.293164 -0.362922 3.473196 -4.690151 -13.538540 7.671394 0.000000 0.000000 0.000000 8.250564 -0.179282 0.565815 -6.155269 2.091431 -19.688311 -2.805517 7.591436 26.644574 9.757729 -3.811550 -23.748377 0.000000 0.000000 0.000000 -19.466188 -6.654412 1.629805 -53.038964 -3.216924 -6.981003 8.780265 -25.326851 -0.759545 0.000000 0.000000 0.000000 25.676405 -1.833679 -1.551668 59.194134 9.480901 -3.726433 -4.125648 24.561859 0.620551 0.000000 0.000000 0.000000 
